# xmcd CD database file
#
# Track frame offsets:
#	150
#	7951
#	18850
#	30956
#	43792
#	54821
#	64930
#	75245
#	87888
#	99389
#	111472
#	123000
#	134914
#	146643
#	158868
#	171886
#	182308
#	193649
#	207159
#	219244
#	231321
#	243556
#	256449
#	278428
#
# Disc length: 3862 seconds
#
# Revision: 0
# Processed by: cddbd v1.5.2PL0 Copyright (c) Steve Scherf et al.
# Submitted via: CDex 1.70beta2
#
DISCID=3b0f1418
DTITLE=Smokey Hogg - Midnight Blues
DYEAR=1952
DGENRE=Blues
TTITLE0=You Can't Keep Your Business Straight
TTITLE1=Believe I'll Change Towns
TTITLE2=Late Prowling Girl
TTITLE3=Misery Blues
TTITLE4=Baby Don't You Tear My Clothes
TTITLE5=Trouble In Mind
TTITLE6=Walking Dr. Bill (Take 1)
TTITLE7=Midnight Blues
TTITLE8=I Don't Want You
TTITLE9=Smokey's in Town
TTITLE10=Highway 51
TTITLE11=Let's Get Together And Drink Some Gin
TTITLE12=It's Raining Here
TTITLE13=New Year's Eve Blues
TTITLE14=Worrying Over You (Take 1)
TTITLE15=Pack Your Grip
TTITLE16=Anytime Is The Right Time
TTITLE17=I'm Gonna Find Your Trick (Take 2)
TTITLE18=My Baby's Worrying Me
TTITLE19=Bottle Up And Go
TTITLE20=Oohw Baby
TTITLE21=Love Me With A Feeling
TTITLE22=You Brought It On Yourself
TTITLE23=I Just Can't Help It (Take 1)
EXTD=YEAR: 1952
EXTT0=
EXTT1=
EXTT2=
EXTT3=
EXTT4=
EXTT5=
EXTT6=
EXTT7=
EXTT8=
EXTT9=
EXTT10=
EXTT11=
EXTT12=
EXTT13=
EXTT14=
EXTT15=
EXTT16=
EXTT17=
EXTT18=
EXTT19=
EXTT20=
EXTT21=
EXTT22=
EXTT23=
PLAYORDER=
